<svg width="250" height="250" viewBox="0 0 250 250" fill="none" xmlns="http://www.w3.org/2000/svg">
<path fill-rule="evenodd" clip-rule="evenodd" d="M49.8592 57.8008C37.9188 58.4461 28.1306 67.394 26.2743 79.2068C21.4541 109.881 21.4541 141.119 26.2743 171.793C28.1306 183.606 37.9188 192.554 49.8592 193.199C63.8182 193.954 82.2903 194.818 96.4747 195C103.319 195.088 108.214 195.062 113.688 195.033C116.654 195.017 119.791 195 123.5 195C127.226 195 130.377 195.017 133.357 195.033C138.857 195.062 143.775 195.088 150.652 195C164.741 194.819 183.052 193.968 196.994 193.218C209.156 192.564 219.119 183.427 220.965 171.388C225.627 140.974 225.627 110.026 220.965 79.6123C219.119 67.573 209.156 58.4355 196.994 57.7816C183.052 57.0319 164.741 56.1809 150.652 56C143.775 55.9117 138.857 55.9379 133.357 55.9673C130.377 55.9832 127.226 56 123.5 56C119.791 56 116.654 55.9832 113.688 55.9674C108.214 55.9382 103.319 55.9121 96.4747 56C82.2903 56.1822 63.8182 57.0464 49.8592 57.8008ZM103.25 153.579L158 125L103.25 96.4212V153.579Z" fill="#D9D9D9"/>
</svg>
