<svg width="250" height="250" viewBox="0 0 250 250" fill="none" xmlns="http://www.w3.org/2000/svg">
<path fill-rule="evenodd" clip-rule="evenodd" d="M138 221.073C185.459 214.5 222 173.767 222 124.5C222 70.6522 178.348 27 124.5 27C70.6522 27 27 70.6522 27 124.5C27 173.421 63.0291 213.926 110 220.929V220.753V220.536V220.317V220.097V219.877V219.656V219.434V219.211V218.987V218.763V218.538V218.311V218.085V217.857V217.629V217.4V217.17V216.939V216.708V216.476V216.243V216.009V215.775V215.539V215.304V215.067V214.83V214.592V214.353V214.113V213.873V213.632V213.391V213.149V212.906V212.662V212.418V212.173V211.927V211.681V211.434V211.186V210.938V210.689V210.44V210.189V209.939V209.687V209.435V209.182V208.929V208.675V208.421V208.166V207.91V207.654V207.397V207.139V206.881V206.623V206.363V206.104V205.843V205.582V205.321V205.059V204.796V204.533V204.27V204.006V203.741V203.476V203.21V202.944V202.677V202.41V202.142V201.874V201.605V201.336V201.067V200.796V200.526V200.255V199.983V199.711V199.439V199.166V198.893V198.619V198.345V198.07V197.795V197.52V197.244V196.967V196.691V196.413V196.136V195.858V195.58V195.301V195.022V194.742V194.463V194.182V193.902V193.621V193.34V193.058V192.776V192.494V192.211V191.928V191.645V191.361V191.077V190.793V190.508V190.224V189.938V189.653V189.367V189.081V188.795V188.508V188.221V187.934V187.647V187.359V187.071V186.783V186.495V186.206V185.917V185.628V185.338V185.049V184.759V184.469V184.179V183.888V183.598V183.307V183.016V182.724V182.433V182.141V181.85V181.558V181.266V180.973V180.681V180.388V180.096V179.803V179.51V179.217V178.923V178.63V178.336V178.043V177.749V177.455V177.161V176.867V176.573V176.279V175.984V175.69V175.395V175.101V174.806V174.512V174.217V173.922V173.627V173.332V173.037V172.742V172.447V172.152V171.857V171.562V171.267V170.972V170.677V170.382V170.087V169.792V169.496V169.201V168.906V168.611V168.316V168.021V167.726V167.432V167.137V166.842V166.547V166.253V165.958V165.664V165.369V165.075V164.781V164.486V164.192V163.898V163.605V163.311V163.017V162.724V162.43V162.137V161.844V161.551V161.258V160.965V160.672V160.38V160.088V159.796V159.504V159.212V158.92V158.629V158.337V158.046V157.756V157.465V157.174V156.884V156.594V156.304V156.015V155.725V155.436V155.147V154.858V154.57V154.282V153.994V153.706V153.419V153.131V152.844V152.558V152.271V151.985V151.7V151.414V151.129V151H87V127H110V126.994V126.756V126.518V126.28V126.043V125.807V125.572V125.338V125.104V124.871V124.639V124.407V124.177V123.947V123.717V123.489V123.261V123.034V122.808V122.583V122.358V122.135V121.912V121.69V121.468V121.248V121.028V120.809V120.591V120.374V120.158V119.942V119.728V119.514V119.301V119.089V118.878V118.667V118.458V118.249V118.042V117.835V117.629V117.424V117.22V117.016V116.814V116.613V116.412V116.213V116.014V115.816V115.62V115.424V115.229V115.035V114.842V114.65V114.459V114.269V114.08V113.892V113.705V113.518V113.333V113.149V112.966V112.784V112.602V112.422V112.243V112.065V111.888V111.712V111.537V111.363V111.19V111.018V110.847V110.678V110.509V110.341V110.175V110.009V109.845V109.681V109.519V109.358V109.198V109.039V108.881V108.724V108.569V108.414V108.261V108.109V107.958V107.808V107.659V107.511V107.365V107.219V107.075V106.932V106.79V106.649V106.51V106.372V106.234V106.099V105.964V105.83V105.698V105.567V105.437V105.308V105.181V105.054V104.929V104.806V104.683V104.562V104.442V104.323V104.205V104.089V103.974V103.86V103.748V103.637V103.527V103.418V103.311V103.205V103.1V102.997V102.895V102.794V102.695V102.597V102.5C110 91.7785 115.646 82.7325 121.82 76.8237C127.908 70.9965 136.822 66 146.5 66H166V94H146.503L146.502 94.0001C146.488 94.0007 146.338 94.0075 146.043 94.0807C145.713 94.1628 145.264 94.3137 144.718 94.5703C143.599 95.0957 142.343 95.9388 141.18 97.0513C138.604 99.5175 138 101.722 138 102.5V102.597V102.695V102.794V102.895V102.997V103.1V103.205V103.311V103.418V103.527V103.637V103.748V103.86V103.974V104.089V104.205V104.323V104.442V104.562V104.683V104.806V104.929V105.054V105.181V105.308V105.437V105.567V105.698V105.83V105.964V106.099V106.234V106.372V106.51V106.649V106.79V106.932V107.075V107.219V107.365V107.511V107.659V107.808V107.958V108.109V108.261V108.414V108.569V108.724V108.881V109.039V109.198V109.358V109.519V109.681V109.845V110.009V110.175V110.341V110.509V110.678V110.847V111.018V111.19V111.363V111.537V111.712V111.888V112.065V112.243V112.422V112.602V112.784V112.966V113.149V113.333V113.518V113.705V113.892V114.08V114.269V114.459V114.65V114.842V115.035V115.229V115.424V115.62V115.816V116.014V116.213V116.412V116.613V116.814V117.016V117.22V117.424V117.629V117.835V118.042V118.249V118.458V118.667V118.878V119.089V119.301V119.514V119.728V119.942V120.158V120.374V120.591V120.809V121.028V121.248V121.468V121.69V121.912V122.135V122.358V122.583V122.808V123.034V123.261V123.489V123.717V123.947V124.177V124.407V124.639V124.871V125.104V125.338V125.572V125.807V126.043V126.28V126.518V126.756V126.994V127H166L163 151H138V151.129V151.414V151.7V151.985V152.271V152.558V152.844V153.131V153.419V153.706V153.994V154.282V154.57V154.858V155.147V155.436V155.725V156.015V156.304V156.594V156.884V157.174V157.465V157.756V158.046V158.337V158.629V158.92V159.212V159.504V159.796V160.088V160.38V160.672V160.965V161.258V161.551V161.844V162.137V162.43V162.724V163.017V163.311V163.605V163.898V164.192V164.486V164.781V165.075V165.369V165.664V165.958V166.253V166.547V166.842V167.137V167.432V167.726V168.021V168.316V168.611V168.906V169.201V169.496V169.792V170.087V170.382V170.677V170.972V171.267V171.562V171.857V172.152V172.447V172.742V173.037V173.332V173.627V173.922V174.217V174.512V174.806V175.101V175.395V175.69V175.984V176.279V176.573V176.867V177.161V177.455V177.749V178.043V178.336V178.63V178.923V179.217V179.51V179.803V180.096V180.388V180.681V180.973V181.266V181.558V181.85V182.141V182.433V182.724V183.016V183.307V183.598V183.888V184.179V184.469V184.759V185.049V185.338V185.628V185.917V186.206V186.495V186.783V187.071V187.359V187.647V187.934V188.221V188.508V188.795V189.081V189.367V189.653V189.938V190.224V190.508V190.793V191.077V191.361V191.645V191.928V192.211V192.494V192.776V193.058V193.34V193.621V193.902V194.182V194.463V194.742V195.022V195.301V195.58V195.858V196.136V196.413V196.691V196.967V197.244V197.52V197.795V198.07V198.345V198.619V198.893V199.166V199.439V199.711V199.983V200.255V200.526V200.796V201.067V201.336V201.605V201.874V202.142V202.41V202.677V202.944V203.21V203.476V203.741V204.006V204.27V204.533V204.796V205.059V205.321V205.582V205.843V206.104V206.363V206.623V206.881V207.139V207.397V207.654V207.91V208.166V208.421V208.675V208.929V209.182V209.435V209.687V209.939V210.189V210.44V210.689V210.938V211.186V211.434V211.681V211.927V212.173V212.418V212.662V212.906V213.149V213.391V213.632V213.873V214.113V214.353V214.592V214.83V215.067V215.304V215.539V215.775V216.009V216.243V216.476V216.708V216.939V217.17V217.4V217.629V217.857V218.085V218.311V218.538V218.763V218.987V219.211V219.434V219.656V219.877V220.097V220.317V220.536V220.753V220.971V221.073Z" fill="white"/>
</svg>
