<svg width="120" height="238" viewBox="0 0 120 238" fill="none" xmlns="http://www.w3.org/2000/svg">
<path fill-rule="evenodd" clip-rule="evenodd" d="M0 238L120 238V171C114.477 171 110 175.477 110 181C110 185.401 112.843 189.138 116.793 190.475C112.282 191.847 109 196.04 109 201C109 204.999 111.133 208.499 114.324 210.424C112.949 211.164 111.734 212.165 110.746 213.359C110.912 212.599 111 211.81 111 211C111 206.04 107.718 201.847 103.207 200.475C107.157 199.138 110 195.401 110 191C110 185.477 105.523 181 100 181C94.4771 181 90 185.477 90 191C90 195.401 92.8433 199.138 96.7932 200.475C92.2823 201.847 89 206.04 89 211C89 211.81 89.0876 212.599 89.2537 213.359C88.266 212.165 87.0514 211.164 85.6758 210.424C88.8665 208.499 91 204.999 91 201C91 196.04 87.7177 191.847 83.2068 190.475C87.1567 189.138 90 185.401 90 181C90 175.477 85.5229 171 80 171C74.4771 171 70 175.477 70 181C70 185.401 72.8433 189.138 76.7932 190.475C72.2823 191.847 69 196.04 69 201C69 204.999 71.1335 208.499 74.3242 210.424C72.9486 211.164 71.734 212.165 70.7463 213.359C70.9124 212.599 71 211.81 71 211C71 206.04 67.7177 201.847 63.2068 200.475C67.1567 199.138 70 195.401 70 191C70 185.477 65.5229 181 60 181C54.4771 181 50 185.477 50 191C50 195.401 52.8433 199.138 56.7932 200.475C52.2823 201.847 49 206.04 49 211C49 211.81 49.0876 212.599 49.2537 213.359C48.266 212.165 47.0514 211.164 45.6758 210.424C48.8665 208.499 51 204.999 51 201C51 196.04 47.7177 191.847 43.2068 190.475C47.1567 189.138 50 185.401 50 181C50 175.477 45.5229 171 40 171C34.4771 171 30 175.477 30 181C30 185.401 32.8433 189.138 36.7932 190.475C32.2823 191.847 29 196.04 29 201C29 204.999 31.1335 208.499 34.3242 210.424C32.9486 211.164 31.734 212.165 30.7463 213.359C30.9124 212.599 31 211.81 31 211C31 206.04 27.7177 201.847 23.2068 200.475C27.1567 199.138 30 195.401 30 191C30 185.477 25.5229 181 20 181C14.4771 181 10 185.477 10 191C10 195.401 12.8433 199.138 16.7932 200.475C12.2823 201.847 9 206.04 9 211C9 211.81 9.08755 212.599 9.25366 213.359C8.26599 212.165 7.05136 211.164 5.67581 210.424C8.86652 208.499 11 204.999 11 201C11 196.04 7.71765 191.847 3.20676 190.475C7.15671 189.138 10 185.401 10 181C10 175.477 5.52286 171 0 171V238ZM0 170C4.97055 170 9 165.971 9 161C9 156.029 4.97055 152 0 152V170ZM0 149C4.41827 149 8 145.418 8 141C8 136.582 4.41827 133 0 133V149ZM0 128C3.866 128 7 124.866 7 121C7 117.134 3.866 114 0 114V128ZM0 107C3.31372 107 6 104.314 6 101C6 97.6863 3.31372 95 0 95V107ZM0 86C2.76141 86 5 83.7614 5 81C5 78.2386 2.76141 76 0 76V86ZM0 65C2.20914 65 4 63.2091 4 61C4 58.7909 2.20914 57 0 57V65ZM0 44C1.65686 44 3 42.6569 3 41C3 39.3431 1.65686 38 0 38V44ZM0 23C1.10458 23 2 22.1046 2 21C2 19.8954 1.10458 19 0 19V23ZM0 2C0.552277 2 1 1.55229 1 1C1 0.447708 0.552277 0 0 0V2ZM120 0C119.448 0 119 0.447708 119 1C119 1.55229 119.448 2 120 2V0ZM120 19C118.895 19 118 19.8954 118 21C118 22.1046 118.895 23 120 23V19ZM120 38C118.343 38 117 39.3431 117 41C117 42.6569 118.343 44 120 44V38ZM120 57C117.791 57 116 58.7909 116 61C116 63.2091 117.791 65 120 65V57ZM120 76C117.239 76 115 78.2386 115 81C115 83.7614 117.239 86 120 86V76ZM120 95C116.686 95 114 97.6863 114 101C114 104.314 116.686 107 120 107V95ZM120 114C116.134 114 113 117.134 113 121C113 124.866 116.134 128 120 128V114ZM120 133C115.582 133 112 136.582 112 141C112 145.418 115.582 149 120 149V133ZM120 152C115.029 152 111 156.029 111 161C111 165.971 115.029 170 120 170V152ZM41 1C41 1.55229 40.5523 2 40 2C39.4477 2 39 1.55229 39 1C39 0.447708 39.4477 0 40 0C40.5523 0 41 0.447708 41 1ZM60 12C60.5523 12 61 11.5523 61 11C61 10.4477 60.5523 10 60 10C59.4477 10 59 10.4477 59 11C59 11.5523 59.4477 12 60 12ZM22 31C22 32.1046 21.1046 33 20 33C18.8954 33 18 32.1046 18 31C18 29.8954 18.8954 29 20 29C21.1046 29 22 29.8954 22 31ZM23 51C23 52.6569 21.6569 54 20 54C18.3431 54 17 52.6569 17 51C17 49.3431 18.3431 48 20 48C21.6569 48 23 49.3431 23 51ZM20 75C22.2091 75 24 73.2091 24 71C24 68.7909 22.2091 67 20 67C17.7909 67 16 68.7909 16 71C16 73.2091 17.7909 75 20 75ZM25 91C25 93.7614 22.7614 96 20 96C17.2386 96 15 93.7614 15 91C15 88.2386 17.2386 86 20 86C22.7614 86 25 88.2386 25 91ZM20 117C23.3137 117 26 114.314 26 111C26 107.686 23.3137 105 20 105C16.6863 105 14 107.686 14 111C14 114.314 16.6863 117 20 117ZM27 131C27 134.866 23.866 138 20 138C16.134 138 13 134.866 13 131C13 127.134 16.134 124 20 124C23.866 124 27 127.134 27 131ZM20 159C24.4183 159 28 155.418 28 151C28 146.582 24.4183 143 20 143C15.5817 143 12 146.582 12 151C12 155.418 15.5817 159 20 159ZM29 171C29 175.971 24.9706 180 20 180C15.0294 180 11 175.971 11 171C11 166.029 15.0294 162 20 162C24.9706 162 29 166.029 29 171ZM111.998 230.754L112.058 230.708L112.108 230.668L112.155 230.633L112.206 230.594L112.242 230.567C112.295 230.528 112.348 230.49 112.401 230.451C112.436 230.426 112.472 230.4 112.508 230.375C112.317 230.222 112.131 230.063 111.95 229.9C111.976 230.182 111.992 230.467 111.998 230.754ZM105.676 220.424C106.677 219.82 107.573 219.062 108.333 218.181C108.115 219.085 108 220.029 108 221C108 221.371 108.017 221.738 108.05 222.1C107.332 221.451 106.535 220.887 105.676 220.424ZM91.667 218.181C92.4266 219.062 93.3234 219.82 94.3242 220.424C93.4647 220.887 92.668 221.451 91.9502 222.1C91.9832 221.738 92 221.371 92 221C92 220.029 91.8847 219.085 91.667 218.181ZM87.4919 230.375C87.6827 230.222 87.8687 230.063 88.0498 229.9C88.0241 230.182 88.0082 230.467 88.0025 230.754C87.8355 230.624 87.6652 230.497 87.4919 230.375ZM71.9975 230.754C72.1645 230.624 72.3348 230.497 72.5081 230.375C72.3173 230.222 72.1313 230.063 71.9502 229.9C71.9759 230.182 71.9918 230.467 71.9975 230.754ZM65.6758 220.424C66.6766 219.82 67.5734 219.062 68.333 218.181C68.1153 219.085 68 220.029 68 221C68 221.371 68.0168 221.738 68.0498 222.1C67.332 221.451 66.5353 220.887 65.6758 220.424ZM48.0025 230.754C48.0082 230.467 48.0241 230.182 48.0498 229.9C47.8687 230.063 47.6827 230.222 47.4919 230.375C47.6652 230.497 47.8355 230.624 48.0025 230.754ZM51.9502 222.1C52.668 221.451 53.4647 220.887 54.3242 220.424C53.3234 219.82 52.4266 219.062 51.667 218.181C51.8847 219.085 52 220.029 52 221C52 221.371 51.9832 221.738 51.9502 222.1ZM31.9502 229.9C32.1313 230.063 32.3173 230.222 32.5081 230.375C32.3348 230.497 32.1645 230.624 31.9975 230.754C31.9918 230.467 31.9759 230.182 31.9502 229.9ZM28.0498 222.1C28.0168 221.738 28 221.371 28 221C28 220.029 28.1153 219.085 28.333 218.181C27.5734 219.062 26.6766 219.82 25.6758 220.424C26.5353 220.887 27.332 221.451 28.0498 222.1ZM8.04977 229.9C8.02411 230.182 8.00824 230.467 8.00247 230.754C7.83551 230.624 7.66522 230.497 7.49185 230.375C7.68268 230.222 7.86874 230.063 8.04977 229.9ZM11.667 218.181C11.8847 219.085 12 220.029 12 221C12 221.371 11.9832 221.738 11.9502 222.1C12.668 221.451 13.4647 220.887 14.3242 220.424C13.3234 219.82 12.4266 219.062 11.667 218.181ZM43 41C43 42.6569 41.6569 44 40 44C38.3431 44 37 42.6569 37 41C37 39.3431 38.3431 38 40 38C41.6569 38 43 39.3431 43 41ZM40 65C42.2091 65 44 63.2091 44 61C44 58.7909 42.2091 57 40 57C37.7909 57 36 58.7909 36 61C36 63.2091 37.7909 65 40 65ZM45 81C45 83.7614 42.7614 86 40 86C37.2386 86 35 83.7614 35 81C35 78.2386 37.2386 76 40 76C42.7614 76 45 78.2386 45 81ZM40 107C43.3137 107 46 104.314 46 101C46 97.6863 43.3137 95 40 95C36.6863 95 34 97.6863 34 101C34 104.314 36.6863 107 40 107ZM47 121C47 124.866 43.866 128 40 128C36.134 128 33 124.866 33 121C33 117.134 36.134 114 40 114C43.866 114 47 117.134 47 121ZM40 149C44.4183 149 48 145.418 48 141C48 136.582 44.4183 133 40 133C35.5817 133 32 136.582 32 141C32 145.418 35.5817 149 40 149ZM49 161C49 165.971 44.9706 170 40 170C35.0294 170 31 165.971 31 161C31 156.029 35.0294 152 40 152C44.9706 152 49 156.029 49 161ZM42 21C42 22.1046 41.1046 23 40 23C38.8954 23 38 22.1046 38 21C38 19.8954 38.8954 19 40 19C41.1046 19 42 19.8954 42 21ZM63 51C63 52.6569 61.6569 54 60 54C58.3431 54 57 52.6569 57 51C57 49.3431 58.3431 48 60 48C61.6569 48 63 49.3431 63 51ZM60 75C62.2091 75 64 73.2091 64 71C64 68.7909 62.2091 67 60 67C57.7909 67 56 68.7909 56 71C56 73.2091 57.7909 75 60 75ZM65 91C65 93.7614 62.7614 96 60 96C57.2386 96 55 93.7614 55 91C55 88.2386 57.2386 86 60 86C62.7614 86 65 88.2386 65 91ZM60 117C63.3137 117 66 114.314 66 111C66 107.686 63.3137 105 60 105C56.6863 105 54 107.686 54 111C54 114.314 56.6863 117 60 117ZM67 131C67 134.866 63.866 138 60 138C56.134 138 53 134.866 53 131C53 127.134 56.134 124 60 124C63.866 124 67 127.134 67 131ZM60 159C64.4183 159 68 155.418 68 151C68 146.582 64.4183 143 60 143C55.5817 143 52 146.582 52 151C52 155.418 55.5817 159 60 159ZM69 171C69 175.971 64.9706 180 60 180C55.0294 180 51 175.971 51 171C51 166.029 55.0294 162 60 162C64.9706 162 69 166.029 69 171ZM62 31C62 32.1046 61.1046 33 60 33C58.8954 33 58 32.1046 58 31C58 29.8954 58.8954 29 60 29C61.1046 29 62 29.8954 62 31ZM20 12C20.5523 12 21 11.5523 21 11C21 10.4477 20.5523 10 20 10C19.4477 10 19 10.4477 19 11C19 11.5523 19.4477 12 20 12ZM80 2C80.5523 2 81 1.55229 81 1C81 0.447708 80.5523 0 80 0C79.4477 0 79 0.447708 79 1C79 1.55229 79.4477 2 80 2ZM101 11C101 11.5523 100.552 12 100 12C99.4477 12 99 11.5523 99 11C99 10.4477 99.4477 10 100 10C100.552 10 101 10.4477 101 11ZM80 44C81.6569 44 83 42.6569 83 41C83 39.3431 81.6569 38 80 38C78.3431 38 77 39.3431 77 41C77 42.6569 78.3431 44 80 44ZM84 61C84 63.2091 82.2091 65 80 65C77.7909 65 76 63.2091 76 61C76 58.7909 77.7909 57 80 57C82.2091 57 84 58.7909 84 61ZM80 86C82.7614 86 85 83.7614 85 81C85 78.2386 82.7614 76 80 76C77.2386 76 75 78.2386 75 81C75 83.7614 77.2386 86 80 86ZM86 101C86 104.314 83.3137 107 80 107C76.6863 107 74 104.314 74 101C74 97.6863 76.6863 95 80 95C83.3137 95 86 97.6863 86 101ZM80 128C83.866 128 87 124.866 87 121C87 117.134 83.866 114 80 114C76.134 114 73 117.134 73 121C73 124.866 76.134 128 80 128ZM88 141C88 145.418 84.4183 149 80 149C75.5817 149 72 145.418 72 141C72 136.582 75.5817 133 80 133C84.4183 133 88 136.582 88 141ZM80 170C84.9706 170 89 165.971 89 161C89 156.029 84.9706 152 80 152C75.0294 152 71 156.029 71 161C71 165.971 75.0294 170 80 170ZM80 23C81.1046 23 82 22.1046 82 21C82 19.8954 81.1046 19 80 19C78.8954 19 78 19.8954 78 21C78 22.1046 78.8954 23 80 23ZM100 54C101.657 54 103 52.6569 103 51C103 49.3431 101.657 48 100 48C98.3431 48 97 49.3431 97 51C97 52.6569 98.3431 54 100 54ZM104 71C104 73.2091 102.209 75 100 75C97.7909 75 96 73.2091 96 71C96 68.7909 97.7909 67 100 67C102.209 67 104 68.7909 104 71ZM100 96C102.761 96 105 93.7614 105 91C105 88.2386 102.761 86 100 86C97.2386 86 95 88.2386 95 91C95 93.7614 97.2386 96 100 96ZM106 111C106 114.314 103.314 117 100 117C96.6863 117 94 114.314 94 111C94 107.686 96.6863 105 100 105C103.314 105 106 107.686 106 111ZM100 138C103.866 138 107 134.866 107 131C107 127.134 103.866 124 100 124C96.134 124 93 127.134 93 131C93 134.866 96.134 138 100 138ZM108 151C108 155.418 104.418 159 100 159C95.5817 159 92 155.418 92 151C92 146.582 95.5817 143 100 143C104.418 143 108 146.582 108 151ZM100 180C104.971 180 109 175.971 109 171C109 166.029 104.971 162 100 162C95.0294 162 91 166.029 91 171C91 175.971 95.0294 180 100 180ZM100 33C101.105 33 102 32.1046 102 31C102 29.8954 101.105 29 100 29C98.8954 29 98 29.8954 98 31C98 32.1046 98.8954 33 100 33Z" fill="#404040"/>
</svg>
