<?xml version="1.0" encoding="UTF-8"?>
<svg id="Layer_1" data-name="Layer 1" xmlns="http://www.w3.org/2000/svg" viewBox="0 0 814 279">
  <defs>
    <style>
      .cls-1 {
        fill: #231f20;
      }

      .cls-1, .cls-2, .cls-3 {
        stroke: #231f20;
        stroke-miterlimit: 10;
        stroke-width: 8.5px;
      }

      .cls-2 {
        fill: #fff;
      }

      .cls-3 {
        fill: #28a8e0;
      }

      .cls-4 {
        fill: #ec7425;
      }
    </style>
  </defs>
  <path class="cls-4" d="m267.92,125.75l21.08-4.58,8.52,7.56,18.71-1.47,8.17.82s4.44-54.45,18.53-61.28l4.2-41.85,114.31,11.49-1.33,13.27,15.59,10.33,47.11-33.41,29.57,28.23s45.24-39.79,90.13-4.35l1.64-16.33,57.16,5.74,10,13.38,2.26-22.45,71.45,7.18-18.64,144.43-41.96,7.22-30.41-25.74-.87,18.89-48.34-1.15-4.99-11.93s-34.83,28.55-81.26-1.89l-13.07,17.24s-53.68-9.52-66.94-31.47c0,0-5.1,61.06-120.49,29.5l-17.41-1.75-29.64,59.54-95.95,10.98,46.36-51.01-8.21-9.07s-54.79,40.89-119.38,6.56l-23.9,22.34-19.39-13.29-69.21,12.63,15.41-153.38,51.33-28.58.02,10.05,15.76-13.24,51.98,26.5,69.2-21.8,13.01,34.7s28.01,18.79,29.88,51.46Z"/>
  <path class="cls-2" d="m135.5,89.25s-49.07,160.02,116.52,92.12c0,0,42.93-129.71-116.52-92.12Z"/>
  <path class="cls-3" d="m150.51,89.1s-30.08,129.57,99.88,77.67c0,0,30.69-99.2-99.88-77.67Z"/>
  <polygon class="cls-2" points="79.43 97.92 102.18 56 140.43 72.68 105.82 126.24 144.9 170.09 105.5 200.36 74.04 151.57 76.56 197.45 40.41 202.38 52.89 78.14 79.87 65.17 79.43 97.92"/>
  <path class="cls-2" d="m554.3,86.99l-29.07-39s-130.58,68.33,12.4,122.9l18.35-39.02s-78.34-20.62-1.68-44.88Z"/>
  <path class="cls-2" d="m607.39,56.24c-30.16-3.03-57.06,18.96-60.09,49.12-3.03,30.16,18.96,57.06,49.12,60.09,30.16,3.03,57.06-18.96,60.09-49.12,3.03-30.16-18.96-57.06-49.12-60.09Zm-7.92,78.85c-13.39-1.35-23.15-13.29-21.81-26.68,1.35-13.39,13.29-23.15,26.68-21.81,13.39,1.35,23.15,13.29,21.81,26.68-1.35,13.39-13.29,23.15-26.68,21.81Z"/>
  <path class="cls-1" d="m165.01,89.6s-26.06,112.26,86.54,67.3c0,0,26.59-85.95-86.54-67.3Z"/>
  <path class="cls-2" d="m210.82,97.89l5.09,13.53c.55,1.47,1.83,2.59,3.41,2.98l14.38,3.58c3.88.97,5.02,5.73,1.95,8.16l-11.86,9.4c-1.2.95-1.85,2.4-1.74,3.9l1.05,14.86c.28,3.9-4.26,6.35-7.64,4.13l-12.02-7.92c-1.38-.91-3.15-1.09-4.68-.47l-13.36,5.37c-3.75,1.51-7.71-1.8-6.66-5.57l3.98-14.36c.4-1.45.05-2.99-.93-4.16l-9.75-11.57c-2.52-2.99-.46-7.43,3.53-7.61l14.81-.65c1.63-.07,3.1-.91,3.94-2.24l7.68-12.24c2.12-3.38,7.4-2.84,8.81.89Z"/>
  <path class="cls-2" d="m456.72,62.87s71.34,151.41-102.23,107.77c0,0-60.95-122.28,102.23-107.77Z"/>
  <path class="cls-3" d="m441.84,64.86s48.21,123.97-87.81,91.1c0,0-44.49-93.83,87.81-91.1Z"/>
  <path class="cls-1" d="m427.56,67.41s41.77,107.41-76.08,78.93c0,0-38.55-81.29,76.08-78.93Z"/>
  <path class="cls-2" d="m383.4,82.14l-3.12,14.11c-.34,1.53-1.45,2.82-2.95,3.44l-13.73,5.59c-3.7,1.51-4.15,6.38-.77,8.35l13.08,7.62c1.32.77,2.17,2.11,2.28,3.61l1.08,14.86c.28,3.9,5.12,5.68,8.15,3l10.77-9.55c1.24-1.1,2.96-1.52,4.57-1.13l13.99,3.41c3.93.96,7.37-2.88,5.8-6.46l-5.99-13.64c-.6-1.37-.48-2.95.33-4.25l8.01-12.84c2.07-3.32-.6-7.42-4.58-7.03l-14.75,1.47c-1.62.16-3.2-.46-4.22-1.66l-9.35-11.03c-2.58-3.04-7.73-1.76-8.59,2.13Z"/>
  <rect class="cls-2" x="393.35" y="15.7" width="17.44" height="73.86" transform="translate(309.52 447.42) rotate(-84.26)"/>
  <polygon class="cls-2" points="215.95 58.15 154.11 78.46 160.98 92.18 221.55 74.18 215.95 58.15"/>
  <polygon class="cls-2" points="256.99 153.98 281.95 140.04 296.12 173.43 313.59 143.22 343.29 146.21 301.91 228.65 248.97 234.67 280.9 201.8 256.99 153.98"/>
  <polygon class="cls-2" points="655.77 164.71 657.47 55.47 694.61 55.21 718.77 122.59 726.36 47.06 765.14 50.96 753.45 167.31 719.05 171.07 687.02 130.74 683.33 167.48 655.77 164.71"/>
</svg>