<svg width="47" height="47" viewBox="0 0 47 47" fill="none" xmlns="http://www.w3.org/2000/svg">
<g clip-path="url(#clip0_3_181)">
<path d="M21.2818 5.8541C21.8805 4.01148 24.4873 4.01148 25.086 5.8541L27.9711 14.7335C28.2389 15.5576 29.0068 16.1155 29.8732 16.1155L39.2096 16.1155C41.1471 16.1155 41.9526 18.5947 40.3852 19.7335L32.8319 25.2213C32.1309 25.7306 31.8376 26.6334 32.1054 27.4574L34.9905 36.3368C35.5892 38.1795 33.4802 39.7117 31.9128 38.5729L24.3595 33.0851C23.6585 32.5758 22.7093 32.5758 22.0083 33.0851L14.455 38.5729C12.8876 39.7117 10.7786 38.1795 11.3774 36.3368L14.2625 27.4574C14.5302 26.6334 14.2369 25.7306 13.5359 25.2213L5.98261 19.7335C4.41518 18.5947 5.22074 16.1155 7.15818 16.1155L16.4946 16.1155C17.361 16.1155 18.1289 15.5576 18.3967 14.7335L21.2818 5.8541Z" fill="#EE7425"/>
</g>
<defs>
<clipPath id="clip0_3_181">
<rect width="47" height="47" fill="white"/>
</clipPath>
</defs>
</svg>
