<svg width="20" height="20" viewBox="0 0 20 20" fill="none" xmlns="http://www.w3.org/2000/svg">
<g clip-path="url(#clip0_7_2)">
<mask id="mask0_7_2" style="mask-type:luminance" maskUnits="userSpaceOnUse" x="0" y="0" width="20" height="20">
<path d="M20 0H0V20H20V0Z" fill="white"/>
</mask>
<g mask="url(#mask0_7_2)">
<path d="M9.0561 2.49112C9.31087 1.70702 10.4201 1.70702 10.6749 2.49112L11.9026 6.26958C12.0166 6.62026 12.3433 6.85767 12.712 6.85767H16.685C17.5094 6.85767 17.8522 7.91265 17.1852 8.39724L13.971 10.7325C13.6727 10.9492 13.5479 11.3334 13.6619 11.684L14.8896 15.4625C15.1444 16.2466 14.2469 16.8986 13.5799 16.414L10.3658 14.0788C10.0675 13.8621 9.66355 13.8621 9.36525 14.0788L6.15108 16.414C5.4841 16.8986 4.58666 16.2466 4.84147 15.4625L6.06917 11.684C6.18308 11.3334 6.05828 10.9492 5.75998 10.7325L2.54581 8.39724C1.87882 7.91265 2.22161 6.85767 3.04605 6.85767H7.019C7.38768 6.85767 7.71445 6.62026 7.8284 6.26958L9.0561 2.49112Z" fill="#EE7425"/>
</g>
</g>
<defs>
<clipPath id="clip0_7_2">
<rect width="20" height="20" fill="white"/>
</clipPath>
</defs>
</svg>
